<?xml version="1.0" standalone="no"?>
<!DOCTYPE svg PUBLIC "-//W3C//DTD SVG 20010904//EN"
 "http://www.w3.org/TR/2001/REC-SVG-20010904/DTD/svg10.dtd">
<svg version="1.0" xmlns="http://www.w3.org/2000/svg"
 width="427.000000pt" height="427.000000pt" viewBox="0 0 427.000000 427.000000"
 preserveAspectRatio="xMidYMid meet">
<metadata>
Created by potrace 1.11, written by Peter Selinger 2001-2013
</metadata>
<g transform="translate(0.000000,427.000000) scale(0.100000,-0.100000)"
fill="#000000" stroke="none">
<path d="M3520 3695 c-66 -15 -469 -105 -490 -110 -62 -13 -893 -195 -960
-210 -36 -9 -74 -17 -85 -19 -11 -2 -85 -18 -164 -36 -80 -18 -158 -33 -175
-33 -36 0 -260 12 -326 18 -25 2 -88 7 -140 10 -52 3 -126 7 -165 10 -136 9
-251 16 -315 20 -36 2 -105 6 -153 10 l-88 6 5 -170 6 -170 -57 -11 c-90 -19
-254 -58 -258 -62 -2 -2 5 -40 15 -85 11 -45 22 -96 25 -115 3 -18 17 -82 31
-143 14 -60 28 -121 30 -135 3 -14 11 -53 19 -86 8 -34 16 -73 19 -85 2 -13
13 -64 25 -114 11 -49 22 -101 25 -115 3 -14 17 -79 31 -145 15 -66 36 -160
47 -210 10 -49 21 -97 23 -105 25 -112 85 -386 129 -585 50 -231 68 -312 71
-325 1 -3 7 -33 15 -68 12 -57 15 -63 35 -58 11 3 95 22 186 41 90 20 171 38
179 40 232 52 441 98 460 101 14 3 105 23 202 44 97 22 187 41 200 44 13 2 46
10 73 16 28 6 57 13 65 15 147 31 534 117 560 125 32 9 240 6 345 -4 22 -3 87
-7 145 -11 58 -3 134 -8 170 -10 36 -3 106 -7 155 -10 134 -8 241 -15 323 -21
l73 -6 -3 163 -3 163 35 8 c19 4 49 9 66 12 17 3 37 8 45 10 14 5 45 12 104
22 17 3 33 9 36 12 4 4 -2 48 -13 97 -10 50 -21 99 -23 110 -3 11 -28 124 -56
250 -88 403 -101 460 -105 480 -2 11 -6 29 -9 40 -6 29 -35 157 -39 180 -2 11
-13 61 -25 110 -11 50 -22 101 -25 115 -2 14 -12 56 -21 94 -13 57 -64 291
-80 371 -3 11 -27 121 -55 245 -28 124 -52 235 -55 247 -4 27 -14 43 -23 42
-4 -1 -32 -7 -62 -14z m-2667 -449 c21 -2 40 -6 42 -8 5 -5 17 -1651 15 -2006
l0 -43 -47 5 c-27 3 -97 8 -158 12 -60 3 -111 7 -112 8 -2 1 -5 391 -9 867 -3
475 -7 935 -8 1022 l-1 159 120 -6 c66 -4 137 -8 158 -10z m427 -21 c41 -2
118 -7 170 -10 52 -3 124 -8 160 -10 36 -3 115 -8 175 -11 61 -3 124 -8 140
-9 17 -2 54 -3 83 -4 l52 -1 0 -149 c0 -148 0 -148 -22 -146 -13 2 -86 6 -163
10 -77 4 -143 9 -146 10 -3 2 -5 -157 -3 -353 1 -196 3 -591 5 -877 l3 -520
-84 1 c-157 2 -232 8 -236 19 -2 5 -5 399 -8 874 -3 475 -8 867 -11 870 -8 8
-28 9 -310 25 -19 1 -20 9 -23 149 l-3 147 73 -5 c40 -2 107 -7 148 -10z
m1177 -60 c9 -3 11 -121 10 -472 l-2 -468 -25 -43 c-37 -66 -92 -94 -183 -94
-116 -1 -117 0 -117 92 l0 78 33 -7 c39 -9 90 3 108 26 12 13 14 96 13 459
l-1 442 76 -4 c42 -3 81 -7 88 -9z m470 -29 c61 -20 118 -73 146 -135 19 -43
21 -68 25 -396 4 -414 1 -444 -63 -510 -34 -34 -53 -45 -98 -55 -139 -28 -276
28 -326 135 -30 64 -36 152 -35 505 1 328 5 351 57 408 62 68 178 87 294 48z
m548 -42 c188 -23 254 -108 249 -319 -2 -88 -29 -156 -75 -184 l-31 -19 30
-16 c39 -20 78 -86 89 -151 16 -87 8 -235 -15 -287 -19 -45 -61 -83 -115 -106
-34 -14 -360 -3 -387 13 -3 2 -7 247 -8 545 l-3 542 113 -7 c62 -3 131 -8 153
-11z m-1150 -1059 c67 -3 130 -8 140 -10 11 -2 28 -4 38 -4 14 -1 17 -11 17
-66 l0 -65 -118 6 -118 6 2 -123 c1 -68 2 -127 3 -130 0 -3 31 -7 69 -8 113
-3 107 1 110 -74 l3 -67 -93 3 -93 2 0 -200 0 -201 -52 6 c-30 3 -56 7 -58 8
-3 1 -11 2 -19 2 -11 0 -13 79 -13 464 l0 464 31 -3 c17 -2 85 -6 151 -10z
m516 -33 c6 -6 34 -176 64 -377 3 -22 10 -65 15 -95 11 -67 17 -100 26 -165 3
-27 8 -59 10 -70 4 -18 16 -97 31 -199 3 -23 1 -36 -4 -33 -6 4 -37 7 -71 8
-68 2 -64 -4 -78 117 -3 34 -9 64 -13 66 -3 2 -40 7 -82 10 l-77 7 -8 -63 c-4
-35 -9 -66 -10 -70 -1 -5 -2 -18 -3 -29 -1 -20 -5 -21 -58 -16 -32 4 -63 6
-69 7 -8 0 -9 11 -4 38 5 20 11 57 15 82 3 25 8 56 10 70 3 14 7 39 9 55 14
86 37 233 41 255 2 14 7 43 10 65 3 22 8 51 11 65 8 46 11 65 18 115 8 52 15
99 21 125 2 8 4 23 4 33 1 16 9 17 94 11 50 -3 95 -9 98 -12z m319 -21 l45 -1
0 -466 0 -465 -60 2 c-33 1 -65 4 -71 6 -8 3 -11 141 -11 467 l0 463 26 -3
c14 -1 46 -2 71 -3z m345 -26 c139 -12 196 -52 220 -159 13 -59 11 -174 -5
-222 -6 -18 -27 -47 -46 -64 -19 -16 -29 -30 -21 -30 21 0 53 -41 67 -85 8
-23 14 -103 15 -195 1 -86 5 -166 9 -177 5 -17 3 -21 -11 -17 -10 2 -42 5 -72
7 -66 4 -69 10 -69 149 -1 198 -2 205 -20 228 -18 22 -92 43 -109 31 -5 -3 -9
-91 -8 -196 l0 -190 -60 -1 c-33 -1 -65 1 -72 3 -8 3 -11 127 -11 468 l1 465
66 -6 c36 -2 93 -7 126 -9z"/>
<path d="M2792 2990 c-12 -5 -27 -22 -33 -37 -16 -42 -10 -669 7 -711 15 -38
54 -56 101 -47 59 11 61 22 59 396 -2 301 -4 340 -20 363 -26 41 -69 54 -114
36z"/>
<path d="M3386 2803 c1 -76 2 -141 3 -144 1 -5 77 -5 118 0 24 2 44 61 44 131
1 112 -30 150 -122 150 l-46 0 3 -137z"/>
<path d="M3389 2488 c0 -7 -1 -81 -2 -165 -2 -171 -9 -158 83 -161 86 -3 94 8
98 132 6 159 -12 186 -126 201 -40 5 -52 3 -53 -7z"/>
<path d="M2737 1808 c-4 -18 -13 -87 -22 -153 -8 -66 -17 -131 -19 -145 -3
-14 -7 -45 -10 -70 l-6 -45 66 -3 c59 -2 65 -1 60 15 -5 18 -11 56 -21 138 -6
52 -16 123 -21 155 -2 14 -6 50 -10 80 -8 67 -10 70 -17 28z"/>
<path d="M3459 1821 c-1 -3 -2 -63 -3 -133 -2 -122 -1 -128 19 -129 97 -5 115
14 115 120 0 90 -6 117 -28 127 -25 10 -102 22 -103 15z"/>
</g>
</svg>
